# xmcd CD database file
#
# Track frame offsets:
#	150
#	19206
#	32800
#	46202
#	62986
#	77397
#	88928
#	105882
#	124141
#	137669
#	151751
#	168239
#
# Disc length: 2413 seconds
#
# Revision: 0
# Processed by: cddbd v1.5.2PL0 Copyright (c) Steve Scherf et al.
# Submitted via: CDex 1.51
#
DISCID=8d096b0c
DTITLE=Orla Fallon - Winter, Fire and Snow
DYEAR=2010
DGENRE=New Age
TTITLE0=What Child Is This?
TTITLE1=Emmanuel
TTITLE2=Away In A Manger
TTITLE3=God Rest Ye Merry Gentlemen - We Three Kings
TTITLE4=Oiche Chiuin (Silent Night)
TTITLE5=Captain O'Kane
TTITLE6=Bells Of Christmas
TTITLE7=In The Bleak Midwinter - Carolan's Cap
TTITLE8=Suantrai
TTITLE9=Carolan's Welcome
TTITLE10=Winter, Fire and Snow
TTITLE11=The Wexford Carol
EXTD=YEAR: 2010
EXTT0=
EXTT1=
EXTT2=
EXTT3=
EXTT4=
EXTT5=
EXTT6=
EXTT7=
EXTT8=
EXTT9=
EXTT10=
EXTT11=
PLAYORDER=
